PathFileType	4	(X/Y/Z)	c:/Users/goper/Files/vsCode/490R/osim_files/A04/A04_Fast_02.trc
DataRate	CameraRate	NumFrames	NumMarkers	Units                	OrigDataRate	OrigDataStartFrame	OrigNumFrames
120.00	120.00	8	36	mm	120.0	879	1406
                Frame#	Time	LPSIS			LASIS			LTH1			LTH2			LTH3			LTH4			LLFE			LMFE			LSH1			LSH2			LSH3			LSH4			LLMAL			LMMAL			LCAL			LMTP5			LTOE			LMTP1			RPSIS			RASIS			RTH1			RTH2			RTH3			RTH4			RLFE			RMFE			RSH1			RSH2			RSH3			RSH4			RLMAL			RMMAL			RCAL			RMTP1			RTOE			RMTP5		
		X1	Y1	Z1	X2	Y2	Z2	X3	Y3	Z3	X4	Y4	Z4	X5	Y5	Z5	X6	Y6	Z6	X7	Y7	Z7	X8	Y8	Z8	X9	Y9	Z9	X10	Y10	Z10	X11	Y11	Z11	X12	Y12	Z12	X13	Y13	Z13	X14	Y14	Z14	X15	Y15	Z15	X16	Y16	Z16	X17	Y17	Z17	X18	Y18	Z18	X19	Y19	Z19	X20	Y20	Z20	X21	Y21	Z21	X22	Y22	Z22	X23	Y23	Z23	X24	Y24	Z24	X25	Y25	Z25	X26	Y26	Z26	X27	Y27	Z27	X28	Y28	Z28	X29	Y29	Z29	X30	Y30	Z30	X31	Y31	Z31	X32	Y32	Z32	X33	Y33	Z33	X34	Y34	Z34	X35	Y35	Z35	X36	Y36	Z36

879	7.31667	-532.26489	1076.94446	316.17145	-751.46753	1038.58899	403.18320	-781.59363	735.97083	452.84433	-800.78827	695.10651	455.12170	-839.98273	757.13971	450.15332	-850.31549	712.44897	452.88318	-868.03290	563.52582	454.88440	-888.15387	556.23431	316.73895	-785.15222	494.69833	452.67459	-767.67242	454.15305	449.78864	-838.22400	463.95212	443.45337	-812.53174	429.26736	438.18378	-601.92499	227.94533	398.77960	-626.21991	215.34293	314.83682	-532.78357	233.81400	336.73843	-675.50201	99.53107	442.21893	-727.28455	81.11853	385.61325	-708.10620	79.06950	339.40335	-531.81494	1065.80261	210.48439	-756.11340	1033.89062	118.33840	-650.71808	727.94269	93.14071	-658.96246	686.17041	94.43771	-711.47357	733.54144	82.52085	-711.86823	685.98486	88.35393	-713.58636	552.36957	118.72893	-726.03894	550.49469	233.72470	-644.02948	342.62958	130.61375	-647.11469	295.34094	139.26825	-704.20728	338.64810	122.06956	-697.44635	291.34708	129.20905	-660.39990	100.89683	136.74913	-691.35651	113.75417	269.07642	-597.81903	58.18005	219.07233	-824.94342	62.69494	243.03206	-844.38715	83.46839	194.83569	-809.16901	52.98203	124.28136
880	7.32500	-541.76331	1077.49927	315.78009	-761.16980	1039.40332	402.58865	-793.55261	737.66370	451.86441	-813.32788	697.10052	454.09055	-851.05188	760.05371	449.43265	-862.48718	714.81329	451.69360	-882.94153	566.82745	453.44299	-902.72614	560.45013	315.24384	-803.13007	494.56363	451.37982	-787.16400	453.11118	448.46185	-857.21997	466.08374	442.10831	-832.67047	430.02347	436.82950	-630.63617	220.66260	398.23840	-655.49548	208.84511	314.25262	-561.46045	223.43163	336.30331	-709.92719	95.07981	441.22723	-762.12793	78.83372	384.44110	-743.15179	76.07504	338.16296	-540.43427	1066.52356	210.75180	-765.56390	1033.81946	117.74032	-655.89587	728.57056	93.03133	-663.64880	686.71014	94.51517	-716.80566	733.37909	82.37558	-716.59491	685.85516	88.30804	-716.38751	552.12128	118.89394	-728.86420	550.23621	233.83186	-645.53528	342.81516	130.82588	-648.28418	295.58435	139.43039	-705.52838	338.65720	122.21327	-698.69843	291.38208	129.35445	-660.72644	101.06770	136.84464	-691.70502	113.61158	269.20468	-598.44385	58.06959	219.23492	-824.93213	62.10116	243.11180	-844.59100	83.02735	194.98199	-809.32446	52.82212	124.36861
881	7.33333	-551.26099	1077.81824	315.49023	-770.84021	1039.77563	401.80801	-805.36469	739.13525	450.88492	-825.81415	698.62122	453.12167	-862.61011	762.12610	448.24915	-874.49774	716.81927	450.56110	-897.37677	569.72357	451.96341	-916.87482	564.20447	313.68240	-820.72278	493.94525	450.18231	-806.67560	452.00177	447.89877	-876.02332	467.91190	440.69321	-852.68732	430.50912	435.47656	-660.29187	212.81311	397.55133	-685.10815	202.12711	313.60242	-590.57605	212.72003	335.83527	-744.88617	90.90730	440.17834	-797.52081	76.90996	383.15982	-778.56567	73.39861	336.90292	-551.05310	1066.25098	209.55803	-774.88666	1033.51941	117.08065	-661.41962	729.14197	92.79985	-668.49933	687.18213	94.42985	-722.39551	733.19397	82.25302	-721.54962	685.68146	88.23352	-719.30347	551.86389	118.95503	-732.48322	549.82281	233.52374	-646.92157	343.09024	130.92070	-649.56219	295.84570	139.52386	-706.93695	338.56094	122.38398	-699.90601	291.38651	129.45593	-661.07776	101.22186	136.94521	-692.51208	113.46723	269.06522	-598.78589	58.28451	219.23645	-825.50885	61.93542	243.66051	-844.86157	82.60966	195.11128	-809.49054	52.64763	124.43674
882	7.34167	-560.68915	1077.84509	315.30600	-780.31494	1039.72595	401.17645	-815.35968	740.24292	450.02823	-837.92554	699.91760	452.09506	-873.87036	763.71442	447.12704	-888.30310	721.42700	449.74069	-911.14594	572.17511	450.52756	-930.44843	567.51514	312.15311	-838.11261	492.97778	448.86597	-826.25354	449.50040	445.09973	-894.34100	469.57147	439.35992	-872.45221	430.81805	434.03891	-690.02271	204.99875	396.74435	-714.93213	195.46959	312.90948	-619.77472	202.25703	335.80673	-780.21429	87.06866	439.01596	-833.12775	75.41301	381.81009	-814.18750	70.95747	335.59830	-560.51471	1066.27185	209.26648	-784.23151	1033.05518	116.38973	-666.94598	729.71393	92.50062	-673.60852	687.61456	94.32082	-728.02197	732.98669	81.93225	-726.74445	685.45642	88.17522	-722.26898	551.57593	118.97298	-735.91864	549.53845	233.41219	-648.54144	343.34662	131.05405	-650.80743	296.11981	139.67027	-708.54077	338.53043	122.45523	-701.24579	291.33218	129.59506	-661.43140	101.41700	137.01826	-692.24005	113.67933	269.19528	-598.88000	58.66618	219.23181	-825.30408	61.54062	243.44504	-844.49945	81.78239	195.17244	-809.62842	52.48983	124.52267
883	7.35000	-569.81323	1077.64844	315.30917	-790.00073	1039.42346	400.43350	-826.31793	740.90515	449.15317	-849.71674	700.67603	451.10519	-884.76965	764.96643	445.99384	-899.86548	722.85028	448.45752	-924.42291	574.07526	448.92853	-943.41821	570.44183	310.49460	-855.06201	491.65399	447.59268	-844.63062	448.22287	443.86606	-912.32959	470.84207	437.83377	-893.73645	431.56546	434.82678	-720.22614	197.10153	395.94394	-745.20056	188.77368	312.10779	-650.36462	190.66301	334.79065	-815.94318	83.49403	437.89316	-868.93396	74.26744	380.35318	-850.55396	68.98347	333.95276	-570.08423	1066.02747	208.95815	-793.79968	1032.47803	115.82303	-672.62036	730.18549	92.24748	-678.90857	688.01288	94.11926	-733.88684	732.71179	81.72282	-732.02496	685.22559	88.06576	-725.63745	551.27472	119.03327	-739.31372	549.13055	233.31732	-650.17755	343.54892	131.13802	-652.24054	296.31226	139.76776	-710.05585	338.48419	122.59697	-702.52893	291.35831	129.60130	-661.78412	101.61824	137.12677	-693.58105	114.16348	269.03577	-598.97742	59.03026	219.22127	-825.50348	61.10649	243.56477	-844.99384	81.47393	195.41130	-809.76123	52.35203	124.58393
884	7.35833	-580.29083	1077.21240	314.62497	-799.44806	1038.63684	399.83231	-835.21283	741.56946	447.97369	-861.14795	701.10834	450.10846	-895.53723	765.65210	444.61221	-911.16376	723.84937	447.03033	-937.04871	575.54803	447.34341	-955.47693	572.77002	308.84097	-871.56006	489.93393	446.38882	-862.97290	446.55585	442.61172	-929.91766	471.82462	436.30417	-913.10168	431.79306	433.22739	-750.85687	189.26714	395.21405	-776.41718	182.09743	311.12213	-681.46765	179.30501	333.84940	-851.96246	80.32557	436.65610	-904.97455	73.56265	378.88754	-886.55780	67.68414	332.89343	-579.58508	1065.66248	208.84361	-803.24689	1031.86035	115.26034	-678.68866	730.64722	91.90413	-684.36389	688.41937	93.84612	-739.88965	732.44189	81.51043	-737.51056	685.00537	87.93284	-728.95703	551.01532	118.95520	-742.87622	548.73389	233.10667	-651.84058	343.80484	131.19250	-653.63611	296.56696	139.83636	-711.71484	338.40225	122.62058	-704.04352	291.36047	129.73036	-662.14691	101.82809	137.18668	-694.56378	114.25443	268.66037	-599.19775	59.30025	219.26610	-825.76843	60.67893	243.70685	-845.18481	81.09967	195.51514	-809.88367	52.21939	124.63710
885	7.36667	-589.91571	1076.55603	314.46536	-809.35040	1037.71106	399.29840	-851.02203	738.46930	447.60904	-872.35645	701.07141	448.99310	-906.32404	765.74506	443.46738	-922.00726	724.25671	445.72104	-949.03375	576.65320	445.67191	-967.04175	574.73022	307.12759	-887.83411	487.87518	444.79721	-880.89911	444.56418	441.16016	-946.88184	472.69907	434.67255	-932.11041	431.95551	431.73602	-781.54523	181.76984	394.61255	-806.67334	175.88643	310.41061	-712.13568	168.69383	333.91693	-888.09216	77.71077	435.45615	-941.17920	73.57077	377.39645	-922.86060	66.79501	331.46060	-589.34937	1064.94751	208.59547	-812.75568	1031.13562	114.60218	-684.74524	731.12585	91.44048	-689.89520	688.83936	93.48272	-746.02716	732.19373	81.30512	-742.96881	684.82428	87.81410	-732.45428	550.71429	118.85816	-746.50482	548.26752	232.88951	-653.58868	344.10181	131.25795	-654.98553	296.85373	139.83968	-713.37164	338.37354	122.60594	-705.45392	291.36902	129.64983	-662.56116	102.03319	137.23785	-695.58765	113.87986	268.74741	-599.64246	59.47399	219.26794	-826.25006	60.47975	243.66435	-845.40662	80.74358	195.61490	-809.94818	52.07466	124.69206
886	7.37500	-599.64331	1075.69568	314.34586	-819.36017	1036.39941	398.81580	-861.47614	737.75708	446.61368	-883.26898	700.61133	447.81644	-916.63171	765.54578	442.09473	-932.62720	724.17603	444.29745	-960.15686	577.18164	443.87756	-977.79510	575.99670	305.31277	-903.56378	485.44424	443.32755	-898.79498	442.74548	440.14545	-963.28998	473.39047	433.05682	-950.40125	432.06985	429.58630	-812.83990	174.13480	393.47870	-838.10992	169.62532	309.35208	-743.69635	157.87233	333.32767	-924.33136	75.83444	434.14352	-977.43341	74.31425	375.90076	-959.28168	66.62237	330.02145	-598.84601	1064.23694	208.54474	-822.57501	1030.34912	114.14283	-690.82043	731.55707	90.96838	-695.55829	689.22137	93.19874	-752.23242	731.83484	81.13068	-748.74390	684.49976	87.81540	-736.05286	550.36407	118.79418	-749.76746	547.64758	232.92474	-654.83307	344.43576	131.13075	-656.52875	297.03983	139.85683	-715.00562	338.20642	122.49117	-706.84283	291.32224	129.62555	-663.01825	102.23035	137.27321	-696.06116	113.94891	268.71591	-599.83539	59.77441	219.26996	-826.21735	60.07529	243.27544	-845.58380	80.77550	195.36821	-810.07568	51.92810	124.70871
